<svg xmlns="http://www.w3.org/2000/svg" xmlns:xlink="http://www.w3.org/1999/xlink" viewBox="0 0 40 40"><defs><clipPath id="a"><polygon points="21.57 1.33 18.24 1.93 15.67 2.51 16.3 4.58 17.99 4.1 20.3 4.08 23.32 4.04 26.48 4.87 29.73 6.41 32.24 8.21 33.88 5.96 30.18 3.81 25.39 1.84 21.57 1.33" fill="none"/></clipPath><clipPath id="b"><polygon points="19.9 2.74 14.64 3.37 10.29 5.41 7.21 8.77 4.34 12.63 2.73 16.76 2.73 22.23 2.73 25.02 5.76 24.74 5.74 20.76 6.02 18.5 7.14 15.08 8.89 12.35 10.79 9.82 13.73 7.38 16.67 6.04 20.95 5.41 23.82 5.9 27.26 6.65 28.8 7.3 32.01 9.36 33.39 7.65 31.32 5.55 27.89 3.72 23.68 2.74 19.9 2.74" fill="none"/></clipPath><clipPath id="c"><polygon points="13.04 5.93 7.93 10.35 3.44 14.94 3.6 21.87 4.56 27.18 4.96 30.82 8.91 34.89 16.08 38.67 17.1 36.15 13.47 34.47 9.61 31.1 7.02 26.48 6.17 21.78 6.81 17.57 8.91 13.02 13.19 8.74 19.07 6.5 20.27 6.5 26.22 7.34 31.68 10.6 33 8.74 32.18 7.27 28.89 5.23 20.83 3.76 13.04 5.93" fill="none"/></clipPath></defs><text transform="matrix(0.71, 0.7, -0.7, 0.71, 3.84, 10.98)" font-size="2.75" fill="#211f1f" font-family="HelveticaNeue-UltraLight, Helvetica Neue" font-weight="100"><tspan xml:space="preserve">  </tspan></text><text transform="matrix(0.71, 0.7, -0.7, 0.71, 3.94, 11.28)" font-size="2.82" fill="#211f1f" font-family="HelveticaNeue-UltraLight, Helvetica Neue" font-weight="100"> </text><text transform="matrix(0.71, 0.7, -0.7, 0.71, 5.88, 13.19)" font-size="2.82" fill="#211f1f" font-family="HelveticaNeue-UltraLight, Helvetica Neue" font-weight="100"> </text><g clip-path="url(#a)"><path d="M2.78,22.12A18.48,18.48,0,1,0,20.53,2.89,18.5,18.5,0,0,0,2.78,22.12" fill="none" stroke="#9c9bc1" stroke-miterlimit="10" stroke-width="2"/></g><g clip-path="url(#b)"><path d="M21.72,38.78A17.3,17.3,0,1,0,4,21.94,17.29,17.29,0,0,0,21.72,38.78Z" fill="none" stroke="#85c07e" stroke-width="2"/></g><g clip-path="url(#c)"><path d="M5.16,22.21A16.35,16.35,0,1,0,21.08,5.4,16.38,16.38,0,0,0,5.16,22.21" fill="none" stroke="#83cdee" stroke-miterlimit="10" stroke-width="1.9"/></g><path d="M37.27,21.87A15.7,15.7,0,1,1,21.57,6.18a15.69,15.69,0,0,1,15.7,15.69" fill="#e6e6e6"/><path d="M9.47,17.79h4v.15H11.52v5.15h-.15V17.94H9.47Z" fill="#6e7172"/><path d="M13.81,20a1.22,1.22,0,0,1,.73-.67,1.93,1.93,0,0,1,1.09,0,.91.91,0,0,1,.4.18.93.93,0,0,1,.27.34,1.11,1.11,0,0,1,.11.52V22.7a.23.23,0,0,0,.05.16.19.19,0,0,0,.12.07.41.41,0,0,0,.16,0h.16v.15h-.23a.54.54,0,0,1-.28-.08.33.33,0,0,1-.12-.3v-.49h0a1.09,1.09,0,0,1-.19.35,1.18,1.18,0,0,1-.32.31,1.55,1.55,0,0,1-.45.21,1.92,1.92,0,0,1-.55.08,1.53,1.53,0,0,1-.93-.26.9.9,0,0,1-.35-.77,1.2,1.2,0,0,1,.12-.57.87.87,0,0,1,.3-.33,1.14,1.14,0,0,1,.42-.18l.48-.06.67,0a2.36,2.36,0,0,0,.46-.07.55.55,0,0,0,.27-.17.54.54,0,0,0,.09-.33,2.19,2.19,0,0,0,0-.36.74.74,0,0,0-.15-.34.85.85,0,0,0-.34-.26,1.55,1.55,0,0,0-.6-.1,1.33,1.33,0,0,0-.93.3,1.13,1.13,0,0,0-.37.82H13.7A1.72,1.72,0,0,1,13.81,20Zm2.44.9A.45.45,0,0,1,16,21l-.35.08-.44,0-.45,0a3.11,3.11,0,0,0-.44.06.92.92,0,0,0-.37.14.76.76,0,0,0-.26.3,1,1,0,0,0-.1.49,1,1,0,0,0,.06.33.64.64,0,0,0,.19.28,1,1,0,0,0,.34.2,1.58,1.58,0,0,0,.52.08,1.69,1.69,0,0,0,.66-.13,1.32,1.32,0,0,0,.49-.33,1.45,1.45,0,0,0,.3-.47,1.72,1.72,0,0,0,.1-.55v-.7Z" fill="#6e7172"/><path d="M17.42,19.27v.95h0a1.35,1.35,0,0,1,.16-.41,1.53,1.53,0,0,1,.29-.33,1.47,1.47,0,0,1,.41-.22,1.6,1.6,0,0,1,.51-.08,1.63,1.63,0,0,1,.55.09,1.3,1.3,0,0,1,.43.27,1.19,1.19,0,0,1,.28.43,1.73,1.73,0,0,1,.1.59v2.53H20V20.58a1.42,1.42,0,0,0-.1-.57,1,1,0,0,0-.26-.38,1,1,0,0,0-.39-.23,1.7,1.7,0,0,0-.46-.07,1.4,1.4,0,0,0-.6.13,1.35,1.35,0,0,0-.43.35,1.56,1.56,0,0,0-.27.51,2,2,0,0,0-.09.61v2.16h-.15V19.27Z" fill="#6e7172"/><path d="M23.87,21.81a1.17,1.17,0,0,1-.21.45,1.45,1.45,0,0,1-.36.34,1.78,1.78,0,0,1-.44.21,2.14,2.14,0,0,1-.49.07,1.54,1.54,0,0,1-.7-.15,1.37,1.37,0,0,1-.49-.4,1.77,1.77,0,0,1-.3-.58,2.63,2.63,0,0,1-.1-.7,2.46,2.46,0,0,1,.11-.72,1.75,1.75,0,0,1,.31-.59,1.57,1.57,0,0,1,.51-.41,1.61,1.61,0,0,1,.71-.15,1.44,1.44,0,0,1,.51.09,1.61,1.61,0,0,1,.43.23,1.52,1.52,0,0,1,.32.35,1.72,1.72,0,0,1,.19.44h0v-1H24V23a1.48,1.48,0,0,1-.41,1.15,1.7,1.7,0,0,1-1.18.37,2,2,0,0,1-.55-.07,1.17,1.17,0,0,1-.45-.21,1,1,0,0,1-.32-.37,1.27,1.27,0,0,1-.13-.55h.15a1,1,0,0,0,.11.48,1.15,1.15,0,0,0,.29.33,1.28,1.28,0,0,0,.41.18,2,2,0,0,0,.49.06A1.57,1.57,0,0,0,23.51,24a1.32,1.32,0,0,0,.37-1V21.81Zm-.09-1.39a1.71,1.71,0,0,0-.27-.56,1.3,1.3,0,0,0-.46-.38,1.28,1.28,0,0,0-.63-.15,1.48,1.48,0,0,0-.65.14,1.39,1.39,0,0,0-.46.37,1.81,1.81,0,0,0-.29.55,2.39,2.39,0,0,0-.09.66,2.29,2.29,0,0,0,.09.66,1.67,1.67,0,0,0,.28.53,1.33,1.33,0,0,0,.45.36,1.31,1.31,0,0,0,.61.13,1.39,1.39,0,0,0,1.13-.49,1.74,1.74,0,0,0,.29-.54,2.27,2.27,0,0,0,.1-.65A2.24,2.24,0,0,0,23.78,20.42Z" fill="#6e7172"/><path d="M24.74,20.43a2.28,2.28,0,0,1,.33-.64,1.77,1.77,0,0,1,.54-.44,1.58,1.58,0,0,1,.74-.17,1.56,1.56,0,0,1,1.27.61,1.86,1.86,0,0,1,.33.64,2.61,2.61,0,0,1,0,1.5,1.86,1.86,0,0,1-.33.64,1.48,1.48,0,0,1-.53.43,1.63,1.63,0,0,1-.75.17,1.57,1.57,0,0,1-.73-.17,1.61,1.61,0,0,1-.54-.43,2.28,2.28,0,0,1-.33-.64,2.61,2.61,0,0,1,0-1.5Zm.14,1.45a1.93,1.93,0,0,0,.3.59,1.46,1.46,0,0,0,.49.4,1.37,1.37,0,0,0,.68.16,1.33,1.33,0,0,0,.67-.16,1.5,1.5,0,0,0,.5-.4,1.93,1.93,0,0,0,.3-.59,2.75,2.75,0,0,0,.1-.7,2.61,2.61,0,0,0-.1-.69,1.93,1.93,0,0,0-.3-.59,1.53,1.53,0,0,0-.5-.41,1.44,1.44,0,0,0-.67-.16,1.45,1.45,0,0,0-1.17.57,1.93,1.93,0,0,0-.3.59,2.26,2.26,0,0,0-.1.69A2.37,2.37,0,0,0,24.88,21.88Z" fill="#6e7172"/><path d="M29.72,21.44h3.59a.46.46,0,0,0,0-.91H29.72a.46.46,0,0,0,0,.91Z" fill="#00a49b"/><path d="M31.06,19.19v3.58a.46.46,0,0,0,.91,0V19.19a.46.46,0,0,0-.91,0Z" fill="#00a49b"/></svg>